<svg width="83" height="32" viewBox="0 0 83 32" fill="none" xmlns="http://www.w3.org/2000/svg">
<g clip-path="url(#clip0_1_2085)">
<path d="M8.1728 16.6592C8.1728 10.9696 12.8192 8.864 12.8192 8.864C9.5936 9.1264 5.7216 13.4144 5.7216 18.4C5.7216 24.128 10.4128 29.5808 17.8176 29.5808C25.2224 29.5808 31.9936 23.2896 31.9936 14.7264C31.9936 8.2688 27.328 2.1952 21.056 0C21.9584 0.4928 28.8256 4.6016 28.8256 13.6896C28.8256 21.0048 23.4048 25.5296 17.8112 25.5296C12.2176 25.5296 8.1664 21.4144 8.1664 16.6656M14.1824 6.464C8.5952 6.464 3.168 10.9888 3.168 18.304C3.168 27.392 10.0352 31.5008 10.9376 31.9936C4.6656 29.792 0 23.7184 0 17.2672C0 8.704 6.8096 2.4128 14.1824 2.4128C21.5552 2.4128 26.2784 7.872 26.2784 13.5936C26.2784 18.5792 22.4064 22.8672 19.1808 23.1296C19.1808 23.1296 23.8272 21.0176 23.8272 15.3344C23.8272 10.5856 19.5136 6.464 14.1824 6.464Z" fill="#F01840"/>
<path d="M48.8997 13.8748L45.4437 12.8316C44.3237 12.4476 43.3957 12.0252 43.3957 10.7964C43.3957 9.3052 45.1365 8.934 46.6341 8.934C49.0405 8.934 51.1653 9.5932 53.3029 10.9948V6.0796C51.2293 4.966 49.0853 4.4668 46.3717 4.4668C41.8597 4.4668 37.9941 6.7516 37.9941 11.2444C37.9941 14.6876 39.6645 16.5884 43.7669 17.8108L47.2229 18.8156H47.2293C48.4837 19.2764 49.3093 19.6732 49.3093 20.966C49.3093 22.7068 47.2869 23.014 45.5525 23.014C43.2869 23.014 40.6117 22.1884 38.4741 20.838V25.7724C40.3685 26.8732 43.0565 27.526 45.6997 27.526C50.5765 27.526 54.7813 25.4716 54.7813 20.6332C54.7813 17.606 53.4309 15.2828 48.8997 13.8812M76.8869 27.1484H82.3973V4.8316H76.8869V27.1484ZM73.4373 22.4508H63.1141V18.0604H71.8885V13.5164H63.1141V9.4908H73.2389V4.8316H57.7125V27.1484H73.4373V22.4508Z" fill="#141018"/>
</g>
<defs>
<clipPath id="clip0_1_2085">
<rect width="82.3968" height="31.9936" fill="white"/>
</clipPath>
</defs>
</svg>
