<?xml version="1.0" encoding="utf-8"?>
<!-- Generator: Adobe Illustrator 26.3.1, SVG Export Plug-In . SVG Version: 6.00 Build 0)  -->
<svg version="1.1" id="Layer_1" xmlns="http://www.w3.org/2000/svg" xmlns:xlink="http://www.w3.org/1999/xlink" x="0px" y="0px" width="149px" height="22px" viewBox="0 0 149 22" enable-background="new 0 0 149 22" xml:space="preserve">
	<path fill="#ffffff" d="M12.4,0L8.8,7.2l-8,1.2L6.6,14l-1.4,8l7.2-3.8l7.2,3.8l-1.4-8L24,8.4l-8-1.2L12.4,0z M43.6,0L40,7.2l-8,1.2
	l5.8,5.6l-1.4,8l7.1-3.8l7.2,3.8l-1.4-8l5.8-5.6l-8-1.2L43.6,0z M74.7,0l-3.6,7.2l-8,1.2l5.8,5.6l-1.4,8l7.2-3.8l7.2,3.8l-1.4-8
	l5.8-5.6l-8-1.2L74.7,0z M105.8,0l-3.6,7.2l-8,1.2L100,14l-1.4,8l7.1-3.8L113,22l-1.4-8l5.8-5.6l-8-1.2L105.8,0z M136.9,0l-3.6,7.2
	l-8,1.2l5.8,5.6l-1.4,8l7.2-3.8l7.1,3.8l-1.4-8l5.8-5.6l-8-1.2L136.9,0z"/>
</svg>
