<svg width="616" height="542" viewBox="0 0 616 542" fill="none" xmlns="http://www.w3.org/2000/svg">
<path d="M82.6658 490.518C72.1276 474.381 -4.89674 345.657 75.5935 195.518C140.392 74.6487 270.069 47.9464 362.393 97.4415C450.514 144.684 485.298 250.905 443.227 329.381C392.855 423.34 297.418 417.077 297.418 417.077M82.6658 490.518C57.408 459.23 -8.85991 327.919 66.9657 186.48C133.964 61.5078 271.36 31.4111 369.567 84.0599C464.546 134.979 498.197 246.294 454.398 327.993C405.272 419.628 308.536 421.929 297.418 417.077M82.6658 490.518C42.6885 444.08 -12.8232 310.18 58.338 177.443C127.536 48.3669 272.652 14.8758 376.741 70.6783C478.577 125.273 511.096 241.682 465.569 326.605C417.688 415.917 319.655 426.78 297.418 417.077M82.6658 490.518C82.6658 490.518 82.6658 490.518 82.6658 490.518ZM82.6658 490.518C27.969 428.929 -16.7864 292.442 49.7102 168.406C121.108 35.2261 273.943 -1.65956 383.915 57.2967C492.608 115.568 523.995 237.071 476.74 325.217C430.105 412.206 330.774 431.632 297.418 417.077M82.6658 490.518C13.2494 413.778 -20.7497 274.704 41.0824 159.368C114.681 22.0852 275.234 -18.1949 391.089 43.9151C506.64 105.863 536.895 232.46 487.911 323.829C442.522 408.494 341.892 436.484 297.418 417.077M82.6658 490.518C-1.47007 398.627 -24.713 256.966 32.4547 150.331C108.253 8.94433 276.526 -34.7302 398.262 30.5335C520.671 96.1572 549.794 227.848 499.082 322.441C454.938 404.783 353.011 441.336 297.418 417.077M318.671 125.006C318.671 125.006 223.234 118.743 172.862 212.702C130.791 291.177 165.574 397.399 253.696 444.641C346.019 494.136 475.697 467.434 540.495 346.565C620.985 196.426 543.961 67.7013 533.423 51.5648M318.671 125.006C307.552 120.154 210.817 122.454 161.691 214.09C117.892 295.789 151.543 407.104 246.522 458.023C344.728 510.672 482.124 480.575 549.123 355.602C624.948 214.164 558.681 82.8522 533.423 51.5648M318.671 125.006C296.433 115.302 198.4 126.166 150.52 215.478C104.992 300.4 137.512 416.809 239.348 471.404C343.437 527.207 488.552 493.716 557.751 364.64C628.912 231.902 573.4 98.003 533.423 51.5648M318.671 125.006C285.315 110.45 185.984 129.877 139.348 216.866C92.0932 305.012 123.48 426.515 232.174 484.786C342.146 543.742 494.98 506.856 566.378 373.677C632.875 249.64 588.12 113.154 533.423 51.5648M318.671 125.006C274.196 105.599 173.567 133.588 128.177 218.254C79.1939 309.623 109.449 436.22 225 498.167C340.854 560.277 501.408 519.997 575.006 382.714C636.838 267.378 602.839 128.304 533.423 51.5648M318.671 125.006C263.077 100.747 161.15 137.3 117.006 219.642C66.2947 314.234 95.4176 445.925 217.826 511.549C339.563 576.813 507.836 533.138 583.634 391.752C640.802 285.116 617.559 143.455 533.423 51.5648M533.423 51.5648C533.423 51.5648 533.423 51.5648 533.423 51.5648Z" stroke="#F01840" stroke-miterlimit="10" stroke-linecap="round" stroke-linejoin="round"/>
</svg>
